<?xml version="1.0" encoding="UTF-8" standalone="no"?>
<!DOCTYPE svg PUBLIC "-//W3C//DTD SVG 1.1//EN"
 "http://www.w3.org/Graphics/SVG/1.1/DTD/svg11.dtd">
<!-- Generated by graphviz version 2.40.1 (20161225.0304)
 -->
<!-- Title: g1 Pages: 1 -->
<svg width="841pt" height="598pt"
 viewBox="0.00 0.00 840.72 598.00" xmlns="http://www.w3.org/2000/svg" xmlns:xlink="http://www.w3.org/1999/xlink">
<g id="graph0" class="graph" transform="scale(.3922 .3922) rotate(0) translate(4 1520.6468)">
<title>g1</title>
<polygon fill="#ffffff" stroke="transparent" points="-4,4 -4,-1520.6468 2139.4793,-1520.6468 2139.4793,4 -4,4"/>
<!-- Van Weerstand naar Veranderbereidheid -->
<g id="node1" class="node">
<title>Van Weerstand naar Veranderbereidheid</title>
<path fill="none" stroke="#808080" d="M1144.0752,-848.7597C1144.0752,-848.7597 944.0752,-848.7597 944.0752,-848.7597 938.0752,-848.7597 932.0752,-842.7597 932.0752,-836.7597 932.0752,-836.7597 932.0752,-824.7597 932.0752,-824.7597 932.0752,-818.7597 938.0752,-812.7597 944.0752,-812.7597 944.0752,-812.7597 1144.0752,-812.7597 1144.0752,-812.7597 1150.0752,-812.7597 1156.0752,-818.7597 1156.0752,-824.7597 1156.0752,-824.7597 1156.0752,-836.7597 1156.0752,-836.7597 1156.0752,-842.7597 1150.0752,-848.7597 1144.0752,-848.7597"/>
<text text-anchor="middle" x="1044.0752" y="-827.9597" font-family="Fira Sans" font-size="11.00" fill="#004080">Van Weerstand naar Veranderbereidheid</text>
</g>
<!-- Interventies [158] -->
<g id="node2" class="node">
<title>Interventies [158]</title>
<ellipse fill="none" stroke="#808080" cx="1338.7308" cy="-980.0458" rx="61.8756" ry="18"/>
<text text-anchor="middle" x="1338.7308" y="-977.2458" font-family="Fira Sans" font-size="11.00" fill="#004080">Interventies [158]</text>
</g>
<!-- Van Weerstand naar Veranderbereidheid&#45;&gt;Interventies [158] -->
<g id="edge1" class="edge">
<title>Van Weerstand naar Veranderbereidheid&#45;&gt;Interventies [158]</title>
<path fill="none" stroke="#004080" d="M1079.6175,-848.7671C1134.715,-876.682 1240.4139,-930.2339 1298.3302,-959.577"/>
<polygon fill="#004080" stroke="#004080" points="1297.0394,-962.8466 1307.5416,-964.244 1300.203,-956.6022 1297.0394,-962.8466"/>
</g>
<!-- Weerstand -->
<g id="node3" class="node">
<title>Weerstand</title>
<ellipse fill="none" stroke="#808080" cx="848.1614" cy="-1012.3442" rx="42.8909" ry="18"/>
<text text-anchor="middle" x="848.1614" y="-1009.5442" font-family="Fira Sans" font-size="11.00" fill="#004080">Weerstand</text>
</g>
<!-- Van Weerstand naar Veranderbereidheid&#45;&gt;Weerstand -->
<g id="edge2" class="edge">
<title>Van Weerstand naar Veranderbereidheid&#45;&gt;Weerstand</title>
<path fill="none" stroke="#004080" d="M1024.5739,-848.8345C988.8239,-881.9698 912.8393,-952.3969 873.2802,-989.0627"/>
<polygon fill="#004080" stroke="#004080" points="870.8317,-986.5598 865.8767,-995.9246 875.5902,-991.6938 870.8317,-986.5598"/>
</g>
<!-- Veranderbereidheid -->
<g id="node4" class="node">
<title>Veranderbereidheid</title>
<ellipse fill="none" stroke="#808080" cx="711.5553" cy="-730.3638" rx="71.6184" ry="18"/>
<text text-anchor="middle" x="711.5553" y="-727.5638" font-family="Fira Sans" font-size="11.00" fill="#004080">Veranderbereidheid</text>
</g>
<!-- Van Weerstand naar Veranderbereidheid&#45;&gt;Veranderbereidheid -->
<g id="edge3" class="edge">
<title>Van Weerstand naar Veranderbereidheid&#45;&gt;Veranderbereidheid</title>
<path fill="none" stroke="#004080" d="M984.2432,-812.6949C922.6051,-794.0849 827.2988,-765.3096 767.2296,-747.1733"/>
<polygon fill="#004080" stroke="#004080" points="768.1218,-743.7866 757.537,-744.2468 766.0985,-750.4879 768.1218,-743.7866"/>
</g>
<!-- DINAMO [78] -->
<g id="node5" class="node">
<title>DINAMO [78]</title>
<ellipse fill="none" stroke="#808080" cx="1164.4751" cy="-628.7686" rx="46.1069" ry="18"/>
<text text-anchor="middle" x="1164.4751" y="-625.9686" font-family="Fira Sans" font-size="11.00" fill="#004080">DINAMO [78]</text>
</g>
<!-- Van Weerstand naar Veranderbereidheid&#45;&gt;DINAMO [78] -->
<g id="edge4" class="edge">
<title>Van Weerstand naar Veranderbereidheid&#45;&gt;DINAMO [78]</title>
<path fill="none" stroke="#004080" d="M1054.9722,-812.478C1076.337,-776.6349 1123.803,-697.0028 1148.6367,-655.3402"/>
<polygon fill="#004080" stroke="#004080" points="1151.7481,-656.9561 1153.8618,-646.5742 1145.7352,-653.372 1151.7481,-656.9561"/>
</g>
<!-- Verandermanager [128] -->
<g id="node6" class="node">
<title>Verandermanager [128]</title>
<ellipse fill="none" stroke="#808080" cx="1388.4597" cy="-775.8461" rx="80.6586" ry="18"/>
<text text-anchor="middle" x="1388.4597" y="-773.0461" font-family="Fira Sans" font-size="11.00" fill="#004080">Verandermanager [128]</text>
</g>
<!-- Van Weerstand naar Veranderbereidheid&#45;&gt;Verandermanager [128] -->
<g id="edge5" class="edge">
<title>Van Weerstand naar Veranderbereidheid&#45;&gt;Verandermanager [128]</title>
<path fill="none" stroke="#004080" d="M1156.363,-812.8549C1207.5498,-804.6929 1266.8046,-795.2445 1312.6301,-787.9374"/>
<polygon fill="#004080" stroke="#004080" points="1313.4636,-791.3488 1322.7877,-786.3177 1312.3613,-784.4361 1313.4636,-791.3488"/>
</g>
<!-- Aanpak Binnen Kleurenperspectief [161] -->
<g id="node48" class="node">
<title>Aanpak Binnen Kleurenperspectief [161]</title>
<ellipse fill="none" stroke="#808080" cx="1740.4603" cy="-859.1674" rx="129.778" ry="18"/>
<text text-anchor="middle" x="1740.4603" y="-856.3674" font-family="Fira Sans" font-size="11.00" fill="#004080">Aanpak Binnen Kleurenperspectief [161]</text>
</g>
<!-- Interventies [158]&#45;&gt;Aanpak Binnen Kleurenperspectief [161] -->
<g id="edge47" class="edge">
<title>Interventies [158]&#45;&gt;Aanpak Binnen Kleurenperspectief [161]</title>
<path fill="none" stroke="#004080" d="M1382.1045,-966.9949C1452.9733,-945.6708 1593.9361,-903.2558 1676.3679,-878.4525"/>
<polygon fill="#004080" stroke="#004080" points="1677.5543,-881.7506 1686.1217,-875.5176 1675.5373,-875.0475 1677.5543,-881.7506"/>
</g>
<!-- Keuzeproces [163] -->
<g id="node49" class="node">
<title>Keuzeproces [163]</title>
<ellipse fill="none" stroke="#808080" cx="1730.5849" cy="-915.8141" rx="64.1867" ry="18"/>
<text text-anchor="middle" x="1730.5849" y="-913.0141" font-family="Fira Sans" font-size="11.00" fill="#004080">Keuzeproces [163]</text>
</g>
<!-- Interventies [158]&#45;&gt;Keuzeproces [163] -->
<g id="edge48" class="edge">
<title>Interventies [158]&#45;&gt;Keuzeproces [163]</title>
<path fill="none" stroke="#004080" d="M1392.805,-971.1821C1463.8343,-959.5392 1588.4738,-939.1086 1664.8643,-926.5868"/>
<polygon fill="#004080" stroke="#004080" points="1665.5505,-930.0212 1674.8526,-924.9496 1664.4181,-923.1133 1665.5505,-930.0212"/>
</g>
<!-- Bouwstenen [167] -->
<g id="node50" class="node">
<title>Bouwstenen [167]</title>
<ellipse fill="none" stroke="#808080" cx="1710.9519" cy="-971.276" rx="63.2813" ry="18"/>
<text text-anchor="middle" x="1710.9519" y="-968.476" font-family="Fira Sans" font-size="11.00" fill="#004080">Bouwstenen [167]</text>
</g>
<!-- Interventies [158]&#45;&gt;Bouwstenen [167] -->
<g id="edge49" class="edge">
<title>Interventies [158]&#45;&gt;Bouwstenen [167]</title>
<path fill="none" stroke="#004080" d="M1400.6133,-978.5878C1465.7962,-977.052 1568.3949,-974.6347 1637.603,-973.0041"/>
<polygon fill="#004080" stroke="#004080" points="1638.073,-976.4941 1647.9877,-972.7595 1637.9081,-969.4961 1638.073,-976.4941"/>
</g>
<!-- 8&#45;Stappen Model (Kotter) [199] -->
<g id="node51" class="node">
<title>8&#45;Stappen Model (Kotter) [199]</title>
<ellipse fill="none" stroke="#808080" cx="1513.0188" cy="-1179.8638" rx="102.6578" ry="18"/>
<text text-anchor="middle" x="1513.0188" y="-1177.0638" font-family="Fira Sans" font-size="11.00" fill="#004080">8&#45;Stappen Model (Kotter) [199]</text>
</g>
<!-- Interventies [158]&#45;&gt;8&#45;Stappen Model (Kotter) [199] -->
<g id="edge50" class="edge">
<title>Interventies [158]&#45;&gt;8&#45;Stappen Model (Kotter) [199]</title>
<path fill="none" stroke="#004080" d="M1354.1977,-997.7783C1385.1266,-1033.2377 1454.7054,-1113.0085 1490.6228,-1154.1872"/>
<polygon fill="#004080" stroke="#004080" points="1488.1251,-1156.6483 1497.336,-1161.8838 1493.4004,-1152.047 1488.1251,-1156.6483"/>
</g>
<!-- Irrationeel [27] -->
<g id="node7" class="node">
<title>Irrationeel [27]</title>
<ellipse fill="none" stroke="#808080" cx="1331.0283" cy="-1305.1847" rx="54.9444" ry="18"/>
<text text-anchor="middle" x="1331.0283" y="-1302.3847" font-family="Fira Sans" font-size="11.00" fill="#004080">Irrationeel [27]</text>
</g>
<!-- Weerstand&#45;&gt;Irrationeel [27] -->
<g id="edge6" class="edge">
<title>Weerstand&#45;&gt;Irrationeel [27]</title>
<path fill="none" stroke="#004080" d="M872.7707,-1027.2688C952.3752,-1075.5459 1203.0994,-1227.6007 1295.9729,-1283.9249"/>
<polygon fill="#004080" stroke="#004080" points="1294.3482,-1287.0329 1304.7136,-1289.2259 1297.9781,-1281.0476 1294.3482,-1287.0329"/>
</g>
<!-- Politiek [28] -->
<g id="node8" class="node">
<title>Politiek [28]</title>
<ellipse fill="none" stroke="#808080" cx="1155.1356" cy="-1302.6242" rx="45.9042" ry="18"/>
<text text-anchor="middle" x="1155.1356" y="-1299.8242" font-family="Fira Sans" font-size="11.00" fill="#004080">Politiek [28]</text>
</g>
<!-- Weerstand&#45;&gt;Politiek [28] -->
<g id="edge7" class="edge">
<title>Weerstand&#45;&gt;Politiek [28]</title>
<path fill="none" stroke="#004080" d="M865.9925,-1029.2056C917.9165,-1078.3058 1069.1538,-1221.3183 1129.6699,-1278.5434"/>
<polygon fill="#004080" stroke="#004080" points="1127.5846,-1281.3886 1137.2553,-1285.7163 1132.3941,-1276.3024 1127.5846,-1281.3886"/>
</g>
<!-- Sociaal [30] -->
<g id="node9" class="node">
<title>Sociaal [30]</title>
<ellipse fill="none" stroke="#808080" cx="995.9753" cy="-1286.5495" rx="44.498" ry="18"/>
<text text-anchor="middle" x="995.9753" y="-1283.7495" font-family="Fira Sans" font-size="11.00" fill="#004080">Sociaal [30]</text>
</g>
<!-- Weerstand&#45;&gt;Sociaal [30] -->
<g id="edge8" class="edge">
<title>Weerstand&#45;&gt;Sociaal [30]</title>
<path fill="none" stroke="#004080" d="M857.6327,-1029.9141C882.8106,-1076.621 951.5245,-1204.0901 981.5795,-1259.8443"/>
<polygon fill="#004080" stroke="#004080" points="978.5655,-1261.6293 986.3916,-1268.7711 984.7273,-1258.3077 978.5655,-1261.6293"/>
</g>
<!-- Psychologisch [33] -->
<g id="node10" class="node">
<title>Psychologisch [33]</title>
<ellipse fill="none" stroke="#808080" cx="803.5742" cy="-1249.4991" rx="66.2946" ry="18"/>
<text text-anchor="middle" x="803.5742" y="-1246.6991" font-family="Fira Sans" font-size="11.00" fill="#004080">Psychologisch [33]</text>
</g>
<!-- Weerstand&#45;&gt;Psychologisch [33] -->
<g id="edge9" class="edge">
<title>Weerstand&#45;&gt;Psychologisch [33]</title>
<path fill="none" stroke="#004080" d="M844.7368,-1030.5596C837.0046,-1071.6861 818.149,-1171.9774 808.8863,-1221.2444"/>
<polygon fill="#004080" stroke="#004080" points="805.4186,-1220.7472 807.0105,-1231.2217 812.2981,-1222.0406 805.4186,-1220.7472"/>
</g>
<!-- Oorzaken [38] -->
<g id="node11" class="node">
<title>Oorzaken [38]</title>
<ellipse fill="none" stroke="#808080" cx="651.7695" cy="-1205.4693" rx="51.931" ry="18"/>
<text text-anchor="middle" x="651.7695" y="-1202.6693" font-family="Fira Sans" font-size="11.00" fill="#004080">Oorzaken [38]</text>
</g>
<!-- Weerstand&#45;&gt;Oorzaken [38] -->
<g id="edge10" class="edge">
<title>Weerstand&#45;&gt;Oorzaken [38]</title>
<path fill="none" stroke="#004080" d="M831.0765,-1029.145C796.2708,-1063.3717 717.0275,-1141.2969 676.556,-1181.0951"/>
<polygon fill="#004080" stroke="#004080" points="673.9125,-1178.7859 669.2364,-1188.293 678.8206,-1183.777 673.9125,-1178.7859"/>
</g>
<!-- Vormen [40] -->
<g id="node12" class="node">
<title>Vormen [40]</title>
<ellipse fill="none" stroke="#808080" cx="544.362" cy="-1161.4688" rx="46.8089" ry="18"/>
<text text-anchor="middle" x="544.362" y="-1158.6688" font-family="Fira Sans" font-size="11.00" fill="#004080">Vormen [40]</text>
</g>
<!-- Weerstand&#45;&gt;Vormen [40] -->
<g id="edge11" class="edge">
<title>Weerstand&#45;&gt;Vormen [40]</title>
<path fill="none" stroke="#004080" d="M820.1253,-1026.1062C765.4953,-1052.9221 644.7282,-1112.2025 582.7304,-1142.6351"/>
<polygon fill="#004080" stroke="#004080" points="581.0985,-1139.5371 573.664,-1147.0855 584.1831,-1145.8209 581.0985,-1139.5371"/>
</g>
<!-- Gevolgen [45] -->
<g id="node13" class="node">
<title>Gevolgen [45]</title>
<ellipse fill="none" stroke="#808080" cx="461.7629" cy="-1117.4656" rx="51.2277" ry="18"/>
<text text-anchor="middle" x="461.7629" y="-1114.6656" font-family="Fira Sans" font-size="11.00" fill="#004080">Gevolgen [45]</text>
</g>
<!-- Weerstand&#45;&gt;Gevolgen [45] -->
<g id="edge12" class="edge">
<title>Weerstand&#45;&gt;Gevolgen [45]</title>
<path fill="none" stroke="#004080" d="M812.157,-1022.1394C742.9855,-1040.9578 591.3692,-1082.2056 512.1812,-1103.7491"/>
<polygon fill="#004080" stroke="#004080" points="511.1606,-1100.3994 502.4302,-1106.4019 512.9983,-1107.1539 511.1606,-1100.3994"/>
</g>
<!-- Teamniveau [49] -->
<g id="node14" class="node">
<title>Teamniveau [49]</title>
<ellipse fill="none" stroke="#808080" cx="396.5643" cy="-1073.4514" rx="58.8623" ry="18"/>
<text text-anchor="middle" x="396.5643" y="-1070.6514" font-family="Fira Sans" font-size="11.00" fill="#004080">Teamniveau [49]</text>
</g>
<!-- Weerstand&#45;&gt;Teamniveau [49] -->
<g id="edge13" class="edge">
<title>Weerstand&#45;&gt;Teamniveau [49]</title>
<path fill="none" stroke="#004080" d="M807.2887,-1017.8748C728.4174,-1028.5472 554.7101,-1052.0522 460.4419,-1064.8079"/>
<polygon fill="#004080" stroke="#004080" points="459.9025,-1061.3489 450.4621,-1066.1583 460.8412,-1068.2857 459.9025,-1061.3489"/>
</g>
<!-- Organisatieniveau [50] -->
<g id="node15" class="node">
<title>Organisatieniveau [50]</title>
<ellipse fill="none" stroke="#808080" cx="368.3774" cy="-1029.4492" rx="77.6452" ry="18"/>
<text text-anchor="middle" x="368.3774" y="-1026.6492" font-family="Fira Sans" font-size="11.00" fill="#004080">Organisatieniveau [50]</text>
</g>
<!-- Weerstand&#45;&gt;Organisatieniveau [50] -->
<g id="edge14" class="edge">
<title>Weerstand&#45;&gt;Organisatieniveau [50]</title>
<path fill="none" stroke="#004080" d="M805.5838,-1013.8622C727.2364,-1016.6554 558.7961,-1022.6605 455.3695,-1026.3478"/>
<polygon fill="#004080" stroke="#004080" points="455.1282,-1022.8541 445.2593,-1026.7083 455.3777,-1029.8497 455.1282,-1022.8541"/>
</g>
<!-- Aanpak [50] -->
<g id="node16" class="node">
<title>Aanpak [50]</title>
<ellipse fill="none" stroke="#808080" cx="350.6589" cy="-984.537" rx="45.2009" ry="18"/>
<text text-anchor="middle" x="350.6589" y="-981.737" font-family="Fira Sans" font-size="11.00" fill="#004080">Aanpak [50]</text>
</g>
<!-- Weerstand&#45;&gt;Aanpak [50] -->
<g id="edge15" class="edge">
<title>Weerstand&#45;&gt;Aanpak [50]</title>
<path fill="none" stroke="#004080" d="M805.7446,-1009.9734C715.7594,-1004.9438 505.7974,-993.2082 405.6704,-987.6118"/>
<polygon fill="#004080" stroke="#004080" points="405.6427,-984.1049 395.4629,-987.0413 405.252,-991.094 405.6427,-984.1049"/>
</g>
<!-- Sleutel voor Succes [55] -->
<g id="node17" class="node">
<title>Sleutel voor Succes [55]</title>
<ellipse fill="none" stroke="#808080" cx="338.1289" cy="-935.5335" rx="80.6586" ry="18"/>
<text text-anchor="middle" x="338.1289" y="-932.7335" font-family="Fira Sans" font-size="11.00" fill="#004080">Sleutel voor Succes [55]</text>
</g>
<!-- Veranderbereidheid&#45;&gt;Sleutel voor Succes [55] -->
<g id="edge16" class="edge">
<title>Veranderbereidheid&#45;&gt;Sleutel voor Succes [55]</title>
<path fill="none" stroke="#004080" d="M681.6275,-746.8069C614.7404,-783.5563 453.1171,-872.3561 377.886,-913.69"/>
<polygon fill="#004080" stroke="#004080" points="375.8003,-910.8424 368.7214,-918.7252 379.1711,-916.9774 375.8003,-910.8424"/>
</g>
<!-- Bron van Veranderenergie [56] -->
<g id="node18" class="node">
<title>Bron van Veranderenergie [56]</title>
<ellipse fill="none" stroke="#808080" cx="328.6506" cy="-882.5203" rx="103.3602" ry="18"/>
<text text-anchor="middle" x="328.6506" y="-879.7203" font-family="Fira Sans" font-size="11.00" fill="#004080">Bron van Veranderenergie [56]</text>
</g>
<!-- Veranderbereidheid&#45;&gt;Bron van Veranderenergie [56] -->
<g id="edge17" class="edge">
<title>Veranderbereidheid&#45;&gt;Bron van Veranderenergie [56]</title>
<path fill="none" stroke="#004080" d="M673.0878,-745.6498C603.7048,-773.2208 457.6117,-831.2744 379.862,-862.1702"/>
<polygon fill="#004080" stroke="#004080" points="378.273,-859.0353 370.2724,-865.9808 380.8581,-865.5405 378.273,-859.0353"/>
</g>
<!-- Productieve Weerstand [59] -->
<g id="node19" class="node">
<title>Productieve Weerstand [59]</title>
<ellipse fill="none" stroke="#808080" cx="325.3128" cy="-826.9491" rx="93.4152" ry="18"/>
<text text-anchor="middle" x="325.3128" y="-824.1491" font-family="Fira Sans" font-size="11.00" fill="#004080">Productieve Weerstand [59]</text>
</g>
<!-- Veranderbereidheid&#45;&gt;Productieve Weerstand [59] -->
<g id="edge18" class="edge">
<title>Veranderbereidheid&#45;&gt;Productieve Weerstand [59]</title>
<path fill="none" stroke="#004080" d="M660.6636,-743.09C591.7539,-760.3218 468.6303,-791.1106 392.2795,-810.2031"/>
<polygon fill="#004080" stroke="#004080" points="391.1397,-806.8803 382.2876,-812.7017 392.8379,-813.6712 391.1397,-806.8803"/>
</g>
<!-- Bouwstenen [60] -->
<g id="node20" class="node">
<title>Bouwstenen [60]</title>
<ellipse fill="none" stroke="#808080" cx="331.2843" cy="-769.7407" rx="60.9711" ry="18"/>
<text text-anchor="middle" x="331.2843" y="-766.9407" font-family="Fira Sans" font-size="11.00" fill="#004080">Bouwstenen [60]</text>
</g>
<!-- Veranderbereidheid&#45;&gt;Bouwstenen [60] -->
<g id="edge19" class="edge">
<title>Veranderbereidheid&#45;&gt;Bouwstenen [60]</title>
<path fill="none" stroke="#004080" d="M645.3171,-737.2228C576.156,-744.3844 468.2567,-755.5573 398.6705,-762.7629"/>
<polygon fill="#004080" stroke="#004080" points="398.2771,-759.2848 388.6908,-763.7963 398.9982,-766.2476 398.2771,-759.2848"/>
</g>
<!-- Evidence Based [73] -->
<g id="node21" class="node">
<title>Evidence Based [73]</title>
<ellipse fill="none" stroke="#808080" cx="347.6161" cy="-712.8385" rx="69.5112" ry="18"/>
<text text-anchor="middle" x="347.6161" y="-710.0385" font-family="Fira Sans" font-size="11.00" fill="#004080">Evidence Based [73]</text>
</g>
<!-- Veranderbereidheid&#45;&gt;Evidence Based [73] -->
<g id="edge20" class="edge">
<title>Veranderbereidheid&#45;&gt;Evidence Based [73]</title>
<path fill="none" stroke="#004080" d="M640.9526,-726.964C579.4398,-724.0019 490.3399,-719.7113 426.5002,-716.6372"/>
<polygon fill="#004080" stroke="#004080" points="426.6361,-713.1397 416.4793,-716.1546 426.2994,-720.1316 426.6361,-713.1397"/>
</g>
<!-- Waarnemen [62] -->
<g id="node22" class="node">
<title>Waarnemen [62]</title>
<ellipse fill="none" stroke="#808080" cx="415.374" cy="-607.8757" rx="58.8623" ry="18"/>
<text text-anchor="middle" x="415.374" y="-605.0757" font-family="Fira Sans" font-size="11.00" fill="#004080">Waarnemen [62]</text>
</g>
<!-- Veranderbereidheid&#45;&gt;Waarnemen [62] -->
<g id="edge21" class="edge">
<title>Veranderbereidheid&#45;&gt;Waarnemen [62]</title>
<path fill="none" stroke="#004080" d="M674.3436,-714.9746C619.8891,-692.4545 518.6335,-650.5795 460.1696,-626.4013"/>
<polygon fill="#004080" stroke="#004080" points="461.3974,-623.1216 450.8188,-622.5342 458.7222,-629.5902 461.3974,-623.1216"/>
</g>
<!-- Model van Ajzen [66] -->
<g id="node26" class="node">
<title>Model van Ajzen [66]</title>
<ellipse fill="none" stroke="#808080" cx="635.7983" cy="-464.5665" rx="72.3214" ry="18"/>
<text text-anchor="middle" x="635.7983" y="-461.7665" font-family="Fira Sans" font-size="11.00" fill="#004080">Model van Ajzen [66]</text>
</g>
<!-- Veranderbereidheid&#45;&gt;Model van Ajzen [66] -->
<g id="edge25" class="edge">
<title>Veranderbereidheid&#45;&gt;Model van Ajzen [66]</title>
<path fill="none" stroke="#004080" d="M706.3482,-712.0945C693.3151,-666.3673 659.2231,-546.7539 643.7008,-492.293"/>
<polygon fill="#004080" stroke="#004080" points="647.0487,-491.2699 640.9416,-482.6122 640.3168,-493.1886 647.0487,-491.2699"/>
</g>
<!-- Alle Factoren [97] -->
<g id="node32" class="node">
<title>Alle Factoren [97]</title>
<ellipse fill="none" stroke="#808080" cx="807.6363" cy="-398.6571" rx="61.8756" ry="18"/>
<text text-anchor="middle" x="807.6363" y="-395.8571" font-family="Fira Sans" font-size="11.00" fill="#004080">Alle Factoren [97]</text>
</g>
<!-- DINAMO [78]&#45;&gt;Alle Factoren [97] -->
<g id="edge31" class="edge">
<title>DINAMO [78]&#45;&gt;Alle Factoren [97]</title>
<path fill="none" stroke="#004080" d="M1140.5078,-613.313C1078.7673,-573.4989 914.0919,-467.3062 842.1138,-420.8904"/>
<polygon fill="#004080" stroke="#004080" points="843.7033,-417.7508 833.4024,-415.2727 839.9097,-423.6337 843.7033,-417.7508"/>
</g>
<!-- MEDIA [79] -->
<g id="node33" class="node">
<title>MEDIA [79]</title>
<ellipse fill="none" stroke="#808080" cx="988.3267" cy="-380.033" rx="40.7822" ry="18"/>
<text text-anchor="middle" x="988.3267" y="-377.233" font-family="Fira Sans" font-size="11.00" fill="#004080">MEDIA [79]</text>
</g>
<!-- DINAMO [78]&#45;&gt;MEDIA [79] -->
<g id="edge32" class="edge">
<title>DINAMO [78]&#45;&gt;MEDIA [79]</title>
<path fill="none" stroke="#004080" d="M1152.0887,-611.278C1121.5782,-568.1948 1042.6757,-456.7782 1006.6962,-405.9723"/>
<polygon fill="#004080" stroke="#004080" points="1009.3351,-403.6424 1000.6994,-397.5043 1003.6225,-407.688 1009.3351,-403.6424"/>
</g>
<!-- Dialoog starten [82] -->
<g id="node37" class="node">
<title>Dialoog starten [82]</title>
<ellipse fill="none" stroke="#808080" cx="1180.6443" cy="-400.4296" rx="69.5112" ry="18"/>
<text text-anchor="middle" x="1180.6443" y="-397.6296" font-family="Fira Sans" font-size="11.00" fill="#004080">Dialoog starten [82]</text>
</g>
<!-- DINAMO [78]&#45;&gt;Dialoog starten [82] -->
<g id="edge36" class="edge">
<title>DINAMO [78]&#45;&gt;Dialoog starten [82]</title>
<path fill="none" stroke="#004080" d="M1165.771,-610.4686C1168.5867,-570.7056 1175.2796,-476.1887 1178.6428,-428.6944"/>
<polygon fill="#004080" stroke="#004080" points="1182.1495,-428.7221 1179.3647,-418.4998 1175.167,-428.2276 1182.1495,-428.7221"/>
</g>
<!-- Timing [82] -->
<g id="node38" class="node">
<title>Timing [82]</title>
<ellipse fill="none" stroke="#808080" cx="1368.2362" cy="-444.7269" rx="43.0936" ry="18"/>
<text text-anchor="middle" x="1368.2362" y="-441.9269" font-family="Fira Sans" font-size="11.00" fill="#004080">Timing [82]</text>
</g>
<!-- DINAMO [78]&#45;&gt;Timing [82] -->
<g id="edge37" class="edge">
<title>DINAMO [78]&#45;&gt;Timing [82]</title>
<path fill="none" stroke="#004080" d="M1182.9169,-612.1115C1219.3619,-579.1936 1300.6855,-505.7403 1342.4279,-468.0376"/>
<polygon fill="#004080" stroke="#004080" points="1344.9078,-470.514 1349.9828,-461.2138 1340.2158,-465.3193 1344.9078,-470.514"/>
</g>
<!-- Afbakenen [82] -->
<g id="node39" class="node">
<title>Afbakenen [82]</title>
<ellipse fill="none" stroke="#808080" cx="1499.6114" cy="-488.7686" rx="55.1467" ry="18"/>
<text text-anchor="middle" x="1499.6114" y="-485.9686" font-family="Fira Sans" font-size="11.00" fill="#004080">Afbakenen [82]</text>
</g>
<!-- DINAMO [78]&#45;&gt;Afbakenen [82] -->
<g id="edge38" class="edge">
<title>DINAMO [78]&#45;&gt;Afbakenen [82]</title>
<path fill="none" stroke="#004080" d="M1196.3061,-615.4715C1256.574,-590.2952 1387.4252,-535.6333 1455.8791,-507.0374"/>
<polygon fill="#004080" stroke="#004080" points="1457.6322,-510.0982 1465.5103,-503.014 1454.9339,-503.6391 1457.6322,-510.0982"/>
</g>
<!-- Factoren [90] -->
<g id="node40" class="node">
<title>Factoren [90]</title>
<ellipse fill="none" stroke="#808080" cx="1605.5348" cy="-553.9787" rx="49.8222" ry="18"/>
<text text-anchor="middle" x="1605.5348" y="-551.1787" font-family="Fira Sans" font-size="11.00" fill="#004080">Factoren [90]</text>
</g>
<!-- DINAMO [78]&#45;&gt;Factoren [90] -->
<g id="edge39" class="edge">
<title>DINAMO [78]&#45;&gt;Factoren [90]</title>
<path fill="none" stroke="#004080" d="M1207.1665,-621.5294C1287.519,-607.9042 1461.1405,-578.4634 1550.274,-563.3492"/>
<polygon fill="#004080" stroke="#004080" points="1550.9187,-566.7899 1560.1928,-561.6673 1549.7484,-559.8884 1550.9187,-566.7899"/>
</g>
<!-- Double Loop Learning [132] -->
<g id="node44" class="node">
<title>Double Loop Learning [132]</title>
<ellipse fill="none" stroke="#808080" cx="1683.8072" cy="-641.2017" rx="92.0094" ry="18"/>
<text text-anchor="middle" x="1683.8072" y="-638.4017" font-family="Fira Sans" font-size="11.00" fill="#004080">Double Loop Learning [132]</text>
</g>
<!-- Verandermanager [128]&#45;&gt;Double Loop Learning [132] -->
<g id="edge43" class="edge">
<title>Verandermanager [128]&#45;&gt;Double Loop Learning [132]</title>
<path fill="none" stroke="#004080" d="M1424.0855,-759.6048C1477.5684,-735.2228 1578.6186,-689.1555 1637.6719,-662.2341"/>
<polygon fill="#004080" stroke="#004080" points="1639.4813,-665.2558 1647.1285,-657.923 1636.5776,-658.8865 1639.4813,-665.2558"/>
</g>
<!-- Manager of Verandermanager? [133] -->
<g id="node45" class="node">
<title>Manager of Verandermanager? [133]</title>
<ellipse fill="none" stroke="#808080" cx="1714.1317" cy="-692.3678" rx="119.1298" ry="18"/>
<text text-anchor="middle" x="1714.1317" y="-689.5678" font-family="Fira Sans" font-size="11.00" fill="#004080">Manager of Verandermanager? [133]</text>
</g>
<!-- Verandermanager [128]&#45;&gt;Manager of Verandermanager? [133] -->
<g id="edge44" class="edge">
<title>Verandermanager [128]&#45;&gt;Manager of Verandermanager? [133]</title>
<path fill="none" stroke="#004080" d="M1441.5094,-762.248C1496.5715,-748.1342 1582.9827,-725.9847 1643.7304,-710.4135"/>
<polygon fill="#004080" stroke="#004080" points="1644.8097,-713.7501 1653.6274,-707.8767 1643.0715,-706.9693 1644.8097,-713.7501"/>
</g>
<!-- Denken, Voelen, Doen [137] -->
<g id="node46" class="node">
<title>Denken, Voelen, Doen [137]</title>
<ellipse fill="none" stroke="#808080" cx="1734.0544" cy="-746.8888" rx="91.3068" ry="18"/>
<text text-anchor="middle" x="1734.0544" y="-744.0888" font-family="Fira Sans" font-size="11.00" fill="#004080">Denken, Voelen, Doen [137]</text>
</g>
<!-- Verandermanager [128]&#45;&gt;Denken, Voelen, Doen [137] -->
<g id="edge45" class="edge">
<title>Verandermanager [128]&#45;&gt;Denken, Voelen, Doen [137]</title>
<path fill="none" stroke="#004080" d="M1464.3019,-769.4913C1515.9283,-765.1655 1584.6264,-759.4093 1639.7737,-754.7885"/>
<polygon fill="#004080" stroke="#004080" points="1640.2333,-758.2624 1649.9061,-753.9395 1639.6487,-751.2868 1640.2333,-758.2624"/>
</g>
<!-- Willen, Kunnen, Moeten [140] -->
<g id="node47" class="node">
<title>Willen, Kunnen, Moeten [140]</title>
<ellipse fill="none" stroke="#808080" cx="1743.2848" cy="-802.8504" rx="98.0361" ry="18"/>
<text text-anchor="middle" x="1743.2848" y="-800.0504" font-family="Fira Sans" font-size="11.00" fill="#004080">Willen, Kunnen, Moeten [140]</text>
</g>
<!-- Verandermanager [128]&#45;&gt;Willen, Kunnen, Moeten [140] -->
<g id="edge46" class="edge">
<title>Verandermanager [128]&#45;&gt;Willen, Kunnen, Moeten [140]</title>
<path fill="none" stroke="#004080" d="M1465.0146,-781.6724C1516.9056,-785.6216 1586.0343,-790.8827 1642.408,-795.1731"/>
<polygon fill="#004080" stroke="#004080" points="1642.181,-798.6658 1652.4178,-795.9349 1642.7123,-791.686 1642.181,-798.6658"/>
</g>
<!-- Denken -->
<g id="node23" class="node">
<title>Denken</title>
<ellipse fill="none" stroke="#808080" cx="52.6287" cy="-574.6005" rx="32.4445" ry="18"/>
<text text-anchor="middle" x="52.6287" y="-571.8005" font-family="Fira Sans" font-size="11.00" fill="#004080">Denken</text>
</g>
<!-- Waarnemen [62]&#45;&gt;Denken -->
<g id="edge22" class="edge">
<title>Waarnemen [62]&#45;&gt;Denken</title>
<path fill="none" stroke="#004080" d="M358.6951,-602.6764C285.836,-595.993 160.9447,-584.5365 95.4976,-578.5329"/>
<polygon fill="#004080" stroke="#004080" points="95.4171,-575.0109 85.1391,-577.5827 94.7776,-581.9816 95.4171,-575.0109"/>
</g>
<!-- Voelen -->
<g id="node24" class="node">
<title>Voelen</title>
<ellipse fill="none" stroke="#808080" cx="115.3974" cy="-498.6757" rx="30.8374" ry="18"/>
<text text-anchor="middle" x="115.3974" y="-495.8757" font-family="Fira Sans" font-size="11.00" fill="#004080">Voelen</text>
</g>
<!-- Waarnemen [62]&#45;&gt;Voelen -->
<g id="edge23" class="edge">
<title>Waarnemen [62]&#45;&gt;Voelen</title>
<path fill="none" stroke="#004080" d="M377.3818,-594.0454C319.0813,-572.8224 208.3306,-532.506 151.3079,-511.7481"/>
<polygon fill="#004080" stroke="#004080" points="152.2348,-508.3609 141.6408,-508.229 149.8403,-514.9386 152.2348,-508.3609"/>
</g>
<!-- Handelen -->
<g id="node25" class="node">
<title>Handelen</title>
<ellipse fill="none" stroke="#808080" cx="192.2399" cy="-426.2551" rx="39.1741" ry="18"/>
<text text-anchor="middle" x="192.2399" y="-423.4551" font-family="Fira Sans" font-size="11.00" fill="#004080">Handelen</text>
</g>
<!-- Waarnemen [62]&#45;&gt;Handelen -->
<g id="edge24" class="edge">
<title>Waarnemen [62]&#45;&gt;Handelen</title>
<path fill="none" stroke="#004080" d="M394.3821,-590.7893C353.8357,-557.7865 264.7745,-485.2949 219.6307,-448.5499"/>
<polygon fill="#004080" stroke="#004080" points="221.6991,-445.7207 211.734,-442.1224 217.2802,-451.1496 221.6991,-445.7207"/>
</g>
<!-- Attitude (Willen) -->
<g id="node27" class="node">
<title>Attitude (Willen)</title>
<ellipse fill="none" stroke="#808080" cx="282.4453" cy="-362.7688" rx="58.16" ry="18"/>
<text text-anchor="middle" x="282.4453" y="-359.9688" font-family="Fira Sans" font-size="11.00" fill="#004080">Attitude (Willen)</text>
</g>
<!-- Model van Ajzen [66]&#45;&gt;Attitude (Willen) -->
<g id="edge26" class="edge">
<title>Model van Ajzen [66]&#45;&gt;Attitude (Willen)</title>
<path fill="none" stroke="#004080" d="M588.5102,-450.9432C522.6386,-431.9663 403.6484,-397.6863 335.0493,-377.9235"/>
<polygon fill="#004080" stroke="#004080" points="335.8842,-374.5218 325.3061,-375.1166 333.9464,-381.2482 335.8842,-374.5218"/>
</g>
<!-- Subjectieve Norm (Moeten) -->
<g id="node28" class="node">
<title>Subjectieve Norm (Moeten)</title>
<ellipse fill="none" stroke="#808080" cx="388.4933" cy="-307.6495" rx="91.3068" ry="18"/>
<text text-anchor="middle" x="388.4933" y="-304.8495" font-family="Fira Sans" font-size="11.00" fill="#004080">Subjectieve Norm (Moeten)</text>
</g>
<!-- Model van Ajzen [66]&#45;&gt;Subjectieve Norm (Moeten) -->
<g id="edge27" class="edge">
<title>Model van Ajzen [66]&#45;&gt;Subjectieve Norm (Moeten)</title>
<path fill="none" stroke="#004080" d="M609.3323,-447.7736C564.7818,-419.506 474.7628,-362.3882 424.5016,-330.4971"/>
<polygon fill="#004080" stroke="#004080" points="426.2156,-327.4396 415.8967,-325.0372 422.4653,-333.3502 426.2156,-327.4396"/>
</g>
<!-- Gedragscontrole (Kunnen) -->
<g id="node29" class="node">
<title>Gedragscontrole (Kunnen)</title>
<ellipse fill="none" stroke="#808080" cx="509.6282" cy="-263.5284" rx="90.4018" ry="18"/>
<text text-anchor="middle" x="509.6282" y="-260.7284" font-family="Fira Sans" font-size="11.00" fill="#004080">Gedragscontrole (Kunnen)</text>
</g>
<!-- Model van Ajzen [66]&#45;&gt;Gedragscontrole (Kunnen) -->
<g id="edge28" class="edge">
<title>Model van Ajzen [66]&#45;&gt;Gedragscontrole (Kunnen)</title>
<path fill="none" stroke="#004080" d="M624.6015,-446.7257C602.3515,-411.2727 552.4708,-331.7933 526.3314,-290.1431"/>
<polygon fill="#004080" stroke="#004080" points="529.2616,-288.2277 520.9812,-281.6182 523.3325,-291.9488 529.2616,-288.2277"/>
</g>
<!-- Intentie -->
<g id="node30" class="node">
<title>Intentie</title>
<ellipse fill="none" stroke="#808080" cx="663.8116" cy="-219.4869" rx="33.8507" ry="18"/>
<text text-anchor="middle" x="663.8116" y="-216.6869" font-family="Fira Sans" font-size="11.00" fill="#004080">Intentie</text>
</g>
<!-- Model van Ajzen [66]&#45;&gt;Intentie -->
<g id="edge29" class="edge">
<title>Model van Ajzen [66]&#45;&gt;Intentie</title>
<path fill="none" stroke="#004080" d="M637.8581,-446.5452C642.6946,-404.2322 654.8052,-298.2803 660.6105,-247.4922"/>
<polygon fill="#004080" stroke="#004080" points="664.0903,-247.8674 661.7486,-237.5346 657.1356,-247.0724 664.0903,-247.8674"/>
</g>
<!-- Gedrag -->
<g id="node31" class="node">
<title>Gedrag</title>
<ellipse fill="none" stroke="#808080" cx="506.7866" cy="-18" rx="31.7423" ry="18"/>
<text text-anchor="middle" x="506.7866" y="-15.2" font-family="Fira Sans" font-size="11.00" fill="#004080">Gedrag</text>
</g>
<!-- Intentie&#45;&gt;Gedrag -->
<g id="edge30" class="edge">
<title>Intentie&#45;&gt;Gedrag</title>
<path fill="none" stroke="#004080" d="M650.6938,-202.6548C622.9723,-167.084 558.3293,-84.1371 525.9637,-42.6072"/>
<polygon fill="#004080" stroke="#004080" points="528.6643,-40.3786 519.7566,-34.6425 523.143,-44.6816 528.6643,-40.3786"/>
</g>
<!-- Meting -->
<g id="node34" class="node">
<title>Meting</title>
<ellipse fill="none" stroke="#808080" cx="882.7508" cy="-172.5424" rx="30.1339" ry="18"/>
<text text-anchor="middle" x="882.7508" y="-169.7424" font-family="Fira Sans" font-size="11.00" fill="#004080">Meting</text>
</g>
<!-- MEDIA [79]&#45;&gt;Meting -->
<g id="edge33" class="edge">
<title>MEDIA [79]&#45;&gt;Meting</title>
<path fill="none" stroke="#004080" d="M979.3253,-362.3425C960.7352,-325.8069 918.0155,-241.8488 896.1614,-198.8986"/>
<polygon fill="#004080" stroke="#004080" points="899.2348,-197.2209 891.5804,-189.8955 892.996,-200.3953 899.2348,-197.2209"/>
</g>
<!-- Dialoog -->
<g id="node35" class="node">
<title>Dialoog</title>
<ellipse fill="none" stroke="#808080" cx="1014.8796" cy="-167.4193" rx="33.1473" ry="18"/>
<text text-anchor="middle" x="1014.8796" y="-164.6193" font-family="Fira Sans" font-size="11.00" fill="#004080">Dialoog</text>
</g>
<!-- MEDIA [79]&#45;&gt;Dialoog -->
<g id="edge34" class="edge">
<title>MEDIA [79]&#45;&gt;Dialoog</title>
<path fill="none" stroke="#004080" d="M990.5906,-361.9057C995.225,-324.7967 1005.8222,-239.944 1011.3608,-195.5952"/>
<polygon fill="#004080" stroke="#004080" points="1014.8552,-195.8574 1012.6215,-185.5007 1007.9091,-194.9899 1014.8552,-195.8574"/>
</g>
<!-- Actie -->
<g id="node36" class="node">
<title>Actie</title>
<ellipse fill="none" stroke="#808080" cx="1157.0462" cy="-176.5879" rx="27" ry="18"/>
<text text-anchor="middle" x="1157.0462" y="-173.7879" font-family="Fira Sans" font-size="11.00" fill="#004080">Actie</text>
</g>
<!-- MEDIA [79]&#45;&gt;Actie -->
<g id="edge35" class="edge">
<title>MEDIA [79]&#45;&gt;Actie</title>
<path fill="none" stroke="#004080" d="M1002.4214,-363.0374C1032.4297,-326.8528 1102.7037,-242.1151 1137.2136,-200.5024"/>
<polygon fill="#004080" stroke="#004080" points="1140.1225,-202.4776 1143.812,-192.5459 1134.7343,-198.0091 1140.1225,-202.4776"/>
</g>
<!-- Externe Noodzaak -->
<g id="node41" class="node">
<title>Externe Noodzaak</title>
<ellipse fill="none" stroke="#808080" cx="1762.9436" cy="-347.3058" rx="64.1867" ry="18"/>
<text text-anchor="middle" x="1762.9436" y="-344.5058" font-family="Fira Sans" font-size="11.00" fill="#004080">Externe Noodzaak</text>
</g>
<!-- Factoren [90]&#45;&gt;Externe Noodzaak -->
<g id="edge40" class="edge">
<title>Factoren [90]&#45;&gt;Externe Noodzaak</title>
<path fill="none" stroke="#004080" d="M1618.9554,-536.3579C1646.708,-499.9195 1710.5291,-416.1244 1743.0743,-373.3936"/>
<polygon fill="#004080" stroke="#004080" points="1746.0587,-375.2517 1749.3334,-365.1756 1740.4899,-371.0103 1746.0587,-375.2517"/>
</g>
<!-- Timing -->
<g id="node42" class="node">
<title>Timing</title>
<ellipse fill="none" stroke="#808080" cx="1862.1936" cy="-406.9076" rx="30.1339" ry="18"/>
<text text-anchor="middle" x="1862.1936" y="-404.1076" font-family="Fira Sans" font-size="11.00" fill="#004080">Timing</text>
</g>
<!-- Factoren [90]&#45;&gt;Timing -->
<g id="edge41" class="edge">
<title>Factoren [90]&#45;&gt;Timing</title>
<path fill="none" stroke="#004080" d="M1632.5167,-538.5175C1680.6181,-510.9543 1780.8761,-453.5043 1831.5163,-424.4864"/>
<polygon fill="#004080" stroke="#004080" points="1833.4344,-427.4212 1840.3707,-419.4126 1829.9541,-421.3477 1833.4344,-427.4212"/>
</g>
<!-- Kennis &amp; Ervaring -->
<g id="node43" class="node">
<title>Kennis &amp; Ervaring</title>
<ellipse fill="none" stroke="#808080" cx="1942.9509" cy="-473.0759" rx="64.1867" ry="18"/>
<text text-anchor="middle" x="1942.9509" y="-470.2759" font-family="Fira Sans" font-size="11.00" fill="#004080">Kennis &amp; Ervaring</text>
</g>
<!-- Factoren [90]&#45;&gt;Kennis &amp; Ervaring -->
<g id="edge42" class="edge">
<title>Factoren [90]&#45;&gt;Kennis &amp; Ervaring</title>
<path fill="none" stroke="#004080" d="M1647.2471,-543.9773C1706.7005,-529.722 1816.0978,-503.4916 1883.8692,-487.242"/>
<polygon fill="#004080" stroke="#004080" points="1885.0566,-490.5566 1893.9648,-484.8213 1883.4244,-483.7495 1885.0566,-490.5566"/>
</g>
<!-- 01) Vestigen Urgentie -->
<g id="node52" class="node">
<title>01) Vestigen Urgentie</title>
<ellipse fill="none" stroke="#808080" cx="2015.6028" cy="-1116.2086" rx="73.9291" ry="18"/>
<text text-anchor="middle" x="2015.6028" y="-1113.4086" font-family="Fira Sans" font-size="11.00" fill="#004080">01) Vestigen Urgentie</text>
</g>
<!-- 8&#45;Stappen Model (Kotter) [199]&#45;&gt;01) Vestigen Urgentie -->
<g id="edge51" class="edge">
<title>8&#45;Stappen Model (Kotter) [199]&#45;&gt;01) Vestigen Urgentie</title>
<path fill="none" stroke="#004080" d="M1596.5745,-1169.281C1692.2179,-1157.1672 1847.5227,-1137.4969 1939.7944,-1125.8102"/>
<polygon fill="#004080" stroke="#004080" points="1940.4183,-1129.2592 1949.8993,-1124.5303 1939.5387,-1122.3147 1940.4183,-1129.2592"/>
</g>
<!-- 02) Vormen Leidende Coalitie -->
<g id="node53" class="node">
<title>02) Vormen Leidende Coalitie</title>
<ellipse fill="none" stroke="#808080" cx="1942.4796" cy="-1191.2233" rx="98.7389" ry="18"/>
<text text-anchor="middle" x="1942.4796" y="-1188.4233" font-family="Fira Sans" font-size="11.00" fill="#004080">02) Vormen Leidende Coalitie</text>
</g>
<!-- 8&#45;Stappen Model (Kotter) [199]&#45;&gt;02) Vormen Leidende Coalitie -->
<g id="edge52" class="edge">
<title>8&#45;Stappen Model (Kotter) [199]&#45;&gt;02) Vormen Leidende Coalitie</title>
<path fill="none" stroke="#004080" d="M1614.795,-1182.5558C1680.9735,-1184.3063 1767.1621,-1186.5861 1834.5358,-1188.3681"/>
<polygon fill="#004080" stroke="#004080" points="1834.6686,-1191.8728 1844.7576,-1188.6385 1834.8537,-1184.8752 1834.6686,-1191.8728"/>
</g>
<!-- 03) Ontwikkelen Visie/Strategie -->
<g id="node54" class="node">
<title>03) Ontwikkelen Visie/Strategie</title>
<ellipse fill="none" stroke="#808080" cx="1852.6098" cy="-1259.4956" rx="104.0629" ry="18"/>
<text text-anchor="middle" x="1852.6098" y="-1256.6956" font-family="Fira Sans" font-size="11.00" fill="#004080">03) Ontwikkelen Visie/Strategie</text>
</g>
<!-- 8&#45;Stappen Model (Kotter) [199]&#45;&gt;03) Ontwikkelen Visie/Strategie -->
<g id="edge53" class="edge">
<title>8&#45;Stappen Model (Kotter) [199]&#45;&gt;03) Ontwikkelen Visie/Strategie</title>
<path fill="none" stroke="#004080" d="M1574.9101,-1194.3769C1632.9004,-1207.9752 1719.5626,-1228.2969 1780.6206,-1242.6146"/>
<polygon fill="#004080" stroke="#004080" points="1780.0355,-1246.0723 1790.5705,-1244.9478 1781.6336,-1239.2571 1780.0355,-1246.0723"/>
</g>
<!-- 04) Communiceren Visie/Strategie -->
<g id="node55" class="node">
<title>04) Communiceren Visie/Strategie</title>
<ellipse fill="none" stroke="#808080" cx="1757.4342" cy="-1317.3022" rx="113.103" ry="18"/>
<text text-anchor="middle" x="1757.4342" y="-1314.5022" font-family="Fira Sans" font-size="11.00" fill="#004080">04) Communiceren Visie/Strategie</text>
</g>
<!-- 8&#45;Stappen Model (Kotter) [199]&#45;&gt;04) Communiceren Visie/Strategie -->
<g id="edge54" class="edge">
<title>8&#45;Stappen Model (Kotter) [199]&#45;&gt;04) Communiceren Visie/Strategie</title>
<path fill="none" stroke="#004080" d="M1543.9742,-1197.2705C1588.0213,-1222.0388 1668.8135,-1267.4695 1717.3758,-1294.7767"/>
<polygon fill="#004080" stroke="#004080" points="1715.9131,-1297.9696 1726.3451,-1299.8203 1719.3441,-1291.8681 1715.9131,-1297.9696"/>
</g>
<!-- 05) Creëren Draagvlak -->
<g id="node56" class="node">
<title>05) Creëren Draagvlak</title>
<ellipse fill="none" stroke="#808080" cx="1643.6807" cy="-1366.5092" rx="75.5378" ry="18"/>
<text text-anchor="middle" x="1643.6807" y="-1363.7092" font-family="Fira Sans" font-size="11.00" fill="#004080">05) Creëren Draagvlak</text>
</g>
<!-- 8&#45;Stappen Model (Kotter) [199]&#45;&gt;05) Creëren Draagvlak -->
<g id="edge55" class="edge">
<title>8&#45;Stappen Model (Kotter) [199]&#45;&gt;05) Creëren Draagvlak</title>
<path fill="none" stroke="#004080" d="M1525.5472,-1197.7601C1548.6684,-1230.7879 1598.1443,-1301.4623 1625.1528,-1340.0429"/>
<polygon fill="#004080" stroke="#004080" points="1622.588,-1342.4822 1631.1902,-1348.6671 1628.3225,-1338.4677 1622.588,-1342.4822"/>
</g>
<!-- 06) Generen Korte Termijn Successen -->
<g id="node57" class="node">
<title>06) Generen Korte Termijn Successen</title>
<ellipse fill="none" stroke="#808080" cx="1514.3651" cy="-1410.5196" rx="122.8461" ry="18"/>
<text text-anchor="middle" x="1514.3651" y="-1407.7196" font-family="Fira Sans" font-size="11.00" fill="#004080">06) Generen Korte Termijn Successen</text>
</g>
<!-- 8&#45;Stappen Model (Kotter) [199]&#45;&gt;06) Generen Korte Termijn Successen -->
<g id="edge56" class="edge">
<title>8&#45;Stappen Model (Kotter) [199]&#45;&gt;06) Generen Korte Termijn Successen</title>
<path fill="none" stroke="#004080" d="M1513.1244,-1197.963C1513.3584,-1238.0489 1513.9217,-1334.5521 1514.2016,-1382.5034"/>
<polygon fill="#004080" stroke="#004080" points="1510.7015,-1382.5252 1514.2599,-1392.5045 1517.7014,-1382.4842 1510.7015,-1382.5252"/>
</g>
<!-- 07) Niet Verslappen, Stug Doorgaan -->
<g id="node58" class="node">
<title>07) Niet Verslappen, Stug Doorgaan</title>
<ellipse fill="none" stroke="#808080" cx="1333.6177" cy="-1454.5651" rx="117.0222" ry="18"/>
<text text-anchor="middle" x="1333.6177" y="-1451.7651" font-family="Fira Sans" font-size="11.00" fill="#004080">07) Niet Verslappen, Stug Doorgaan</text>
</g>
<!-- 8&#45;Stappen Model (Kotter) [199]&#45;&gt;07) Niet Verslappen, Stug Doorgaan -->
<g id="edge57" class="edge">
<title>8&#45;Stappen Model (Kotter) [199]&#45;&gt;07) Niet Verslappen, Stug Doorgaan</title>
<path fill="none" stroke="#004080" d="M1501.2478,-1197.8877C1470.4556,-1245.0371 1387.3996,-1372.2136 1351.0512,-1427.8706"/>
<polygon fill="#004080" stroke="#004080" points="1347.9696,-1426.1884 1345.432,-1436.4748 1353.8305,-1430.016 1347.9696,-1426.1884"/>
</g>
<!-- 08) Verandering Beklijven -->
<g id="node59" class="node">
<title>08) Verandering Beklijven</title>
<ellipse fill="none" stroke="#808080" cx="1040.8515" cy="-1498.6468" rx="87.5911" ry="18"/>
<text text-anchor="middle" x="1040.8515" y="-1495.8468" font-family="Fira Sans" font-size="11.00" fill="#004080">08) Verandering Beklijven</text>
</g>
<!-- 8&#45;Stappen Model (Kotter) [199]&#45;&gt;08) Verandering Beklijven -->
<g id="edge58" class="edge">
<title>8&#45;Stappen Model (Kotter) [199]&#45;&gt;08) Verandering Beklijven</title>
<path fill="none" stroke="#004080" d="M1473.0864,-1196.6385C1427.5092,-1216.5211 1351.4872,-1251.9574 1291.2392,-1291.3128 1202.9815,-1348.9648 1110.2184,-1432.8638 1066.5093,-1474.017"/>
<polygon fill="#004080" stroke="#004080" points="1064.0373,-1471.5375 1059.1783,-1480.9525 1068.848,-1476.6225 1064.0373,-1471.5375"/>
</g>
</g>
</svg>
